# xmcd
#
# Track frame offsets:
#	150
#	15006
#	28438
#	46570
#	60649
#	72924
#	89329
#	102743
#	117090
#	135008
#	154090
#	168898
#	183982
#	197589
#	215418
#	231930
#	247647
#	263508
#	278023
#	295067
#	313335
#	328841
#
# Disc length: 4622 seconds
#
# Revision: 0
# Processed by: cddbd v1.5.2PL0 Copyright (c) Steve Scherf et al.
# Submitted via: EasyCDDAExtractor 16.0.0.1
#
DISCID=26120c16
DTITLE=Kolmas Nainen - ME - Parhaat levytykset 1985-2013
DYEAR=2014
DGENRE=
TTITLE0=Me ollaan ne
TTITLE1=Raatona maantiellä
TTITLE2=En oo kuullut mitään
TTITLE3=Äiti pojastaan pappia toivoi
TTITLE4=Iso tyttö ja pikkutyttö (live ’93)
TTITLE5=Jerusalemin suutari (edit ’98)
TTITLE6=Päivät kuluu hukkaan
TTITLE7=Hyvää ja kaunista
TTITLE8=Pyörteeseen
TTITLE9=Elämän tarkoitus (jousiversio ’98)
TTITLE10=Paskanhajua
TTITLE11=Asserin kapakkaan
TTITLE12=Sähkökitara, hyvää tahtoa ja kavereita
TTITLE13=Pensseli
TTITLE14=Syksy rannalla
TTITLE15=Kartat mua
TTITLE16=Maanantai
TTITLE17=Piru piti pitseeriaa
TTITLE18=Helsinki
TTITLE19=Kilpi
TTITLE20=Lamppu ikkunallasi
TTITLE21=Niin sen täytyi olla
EXTD=
EXTT0=
EXTT1=
EXTT2=
EXTT3=
EXTT4=
EXTT5=
EXTT6=
EXTT7=
EXTT8=
EXTT9=
EXTT10=
EXTT11=
EXTT12=
EXTT13=
EXTT14=
EXTT15=
EXTT16=
EXTT17=
EXTT18=
EXTT19=
EXTT20=
EXTT21=
PLAYORDER=
